<svg xmlns="http://www.w3.org/2000/svg" viewBox="0 0 64 64"><g stroke="#4C3D6D" stroke-width="2" stroke-miterlimit="10"><path fill="none" d="M3 23H0M14 23h-3M7 19v-3M7 30v-3"/><path fill="#FFF" d="M11 23l-4 4-4-4 4-4z" stroke-width="1.99998"/></g><g stroke="#4C3D6D" stroke-width="2" stroke-miterlimit="10"><path fill="none" d="M53 50h-3M64 50h-3M57 46v-3M57 57v-3"/><path fill="#71E2A6" d="M61 50l-4 4-4-4 4-4z" stroke-width="1.99998"/></g><path fill="#FFF" d="M50.256 27L45 21.744v-7.488L50.256 9h7.488L63 14.256v7.488L57.744 27z"/><path fill="#BBE271" d="M51 18v-4l2-5h-3l-5 5.256V18z"/><path fill="#E9B921" d="M57 18v-4l-2-5h3l5 5.256V18z"/><path fill="#E2718D" d="M51 18v4l3 5 3-5v-4z"/><path fill="none" stroke="#4C3D6D" stroke-width="2" stroke-miterlimit="10" d="M50.256 27L45 21.744v-7.488L50.256 9h7.488L63 14.256v7.488L57.744 27z"/><path fill="none" stroke="#4C3D6D" stroke-width="2" stroke-linejoin="bevel" stroke-miterlimit="10" d="M53 10l-2 4v8l2 4M55 26l2-4v-8l-2-4M46 18h16"/><path fill="#E2718D" d="M28 1L17 12v30l5 5h12l5-5V12z"/><path fill="#FFF" d="M21 8l7-7 7 7-3 3h-8z"/><path fill="none" stroke="#4C3D6D" stroke-width="2" stroke-linejoin="bevel" stroke-miterlimit="10" d="M28 1L17 12v30l5 5h12l5-5V12z"/><path fill="#71E2A6" stroke="#4C3D6D" stroke-width="2" stroke-linejoin="bevel" stroke-miterlimit="10" d="M17 27L7 37l4 4h6zM39 27l10 10-4 4h-6z"/><path fill="#E9B921" stroke="#4C3D6D" stroke-width="2" stroke-miterlimit="10" d="M26 23l-2-2v-3.664L26 15h4l2 2v4l-2 2zM27 33l-2-2v-2l2-2h2l2 2v2l-2 2z"/><path fill="none" stroke="#4C3D6D" stroke-width="2" stroke-miterlimit="10" d="M21 8l3 3h8l3-3M18 37h20M30 42v4M26 42v4M21 25v11M35 25v11"/><path fill="#E9B921" stroke="#4C3D6D" stroke-width="2" stroke-linejoin="bevel" stroke-miterlimit="10" d="M30 51h2l4 4-8 8-8-8 4-4h2l2 2z"/><path opacity=".15" fill="#4C3D6D" d="M18 38h20v2H18zM25 16h6v2h-6zM26 28h4v2h-4zM4 21h6v2H4zM54 48h6v2h-6zM26 3h4v2h-4zM14 30h2v2h-2zM40 30h2v2h-2z"/><path opacity=".1" fill="#4C3D6D" d="M28 1v46h6l5-5v-1h6l4-4-10-10V12zM28 53l2-2h2l4 4-8 8z"/><path fill="#4C3D6D" d="M27 62h2v2h-2zM27 0h2v2h-2z"/></svg>