<svg xmlns="http://www.w3.org/2000/svg" viewBox="0 0 64 64"><path fill="none" stroke="#4C3D6D" stroke-width="2" stroke-miterlimit="10" d="M56 4l7 7v26L45 55H19L8 44M59 1L49 11M15 37L4 48"/><path fill="#71E2A6" d="M41 37l-4 8h-5v-8z"/><path opacity=".15" fill="#4C3D6D" d="M27 56h10v2H27z"/><path fill="#fff" d="M53 14v10H43V14l-2-3 4-4z"/><path fill="#E9B921" d="M32 24v13h-9l-2-4v-9z"/><path fill="none" stroke="#4C3D6D" stroke-width="2" stroke-linecap="round" stroke-linejoin="round" stroke-miterlimit="10" d="M28 55l-2 4h-5l-4 4h30l-4-4h-5l-2-4z"/><path opacity=".15" fill="#4C3D6D" d="M21 4h22v2H21zM22 12h20v2H22zM24 38h16v2H24zM12 25h40v2H12zM53 20l-8-8-2 3-1-4 2-4 9 9zM11 20l8-8 2 3 1-4-2-4-9 9z"/><path fill="none" stroke="#4C3D6D" stroke-width="2" stroke-miterlimit="10" d="M27 3l-6 12v18l6 12M37 45l6-12V15L37 3M32 4v40"/><path fill="none" stroke="#4C3D6D" stroke-width="2" stroke-miterlimit="10" d="M45 41l-4-4H23l-4 4M19 7l4 4h18l4-4M52 24H12"/><path fill="none" stroke="#4C3D6D" stroke-width="2" stroke-miterlimit="10" d="M23.265 45L11 32.735v-17.47L23.265 3h17.47L53 15.265v17.47L40.735 45z"/><path opacity=".15" fill="#4C3D6D" d="M32 3v42h9l12-12V15L41 3zM32 55v8h15l-4-4h-4l-4-4z"/></svg>