<svg xmlns="http://www.w3.org/2000/svg" viewBox="0 0 64 64"><path fill="#E2718D" stroke="#4C3D6D" stroke-width="2" stroke-miterlimit="10" d="M63 37H1v-6l2-2h57l3 2zM63 57l-2 2H3l-2-2v-6h62z"/><path fill="#E9B921" d="M6 32h52v2H6z"/><path fill="#71E2A6" d="M6 54h52v2H6z"/><path fill="#E9B921" stroke="#4C3D6D" stroke-width="2" stroke-miterlimit="10" d="M5 37h54v14H5z"/><path fill="#E2718D" stroke="#4C3D6D" stroke-width="2" stroke-miterlimit="10" d="M24.096 63L13 51.903V36.097L24.096 25h15.807L51 36.097v15.806L39.903 63z"/><path fill="#FFF" stroke="#4C3D6D" stroke-width="2" stroke-miterlimit="10" d="M27.424 55L21 48.575v-9.15L27.424 33h9.152L43 39.425v9.15L36.576 55z"/><path fill="#4C3D6D" stroke="#4C3D6D" stroke-width="2" stroke-miterlimit="10" d="M39.788 36.212L36.576 33h-9.152L21 39.425v9.15l3.212 3.213z"/><path fill="#71E2A6" stroke="#4C3D6D" stroke-width="2" stroke-miterlimit="10" d="M48 23h10v6H48z"/><path fill="#4C3D6D" stroke="#4C3D6D" stroke-width="2" stroke-miterlimit="10" d="M30.336 48L28 45.664v-3.328L30.336 40h3.328L36 42.336v3.328L33.664 48z"/><path fill="#4C3D6D" d="M8 40h2v8H8zM54 40h2v8h-2z"/><path fill="#FFF" stroke="#4C3D6D" stroke-width="2" stroke-miterlimit="10" d="M47 13l-2 2H19l-2-2V3l2-2h26l2 2z"/><path fill="#71E2A6" stroke="#4C3D6D" stroke-width="2" stroke-miterlimit="10" d="M36 25h-8v-5l-5-5h18l-5 5z"/><path fill="#E9B921" stroke="#4C3D6D" stroke-width="2" stroke-miterlimit="10" d="M43 10l-1 1H22l-1-1V6l1-1h20l1 1z"/></svg>