<svg id="Layer_10" xmlns="http://www.w3.org/2000/svg" viewBox="0 0 80 80"><style>.st0{fill-rule:evenodd;clip-rule:evenodd;fill:#4c3d6d}</style><path class="st0" d="M74 42H6l-2 2v22h4v-4l2-2h22l2 2v10l-2 2h-4l-2-2v-2h-4v4l3.9 4H54l4-4v-4h-4v2l-2 2h-4l-2-2V62l2-2h22l2 2v4h4V44l-2-2zM9 56l-1-1v-2l1-1h28l1 1v2l-1 1H9zm33 17l-1 1h-2l-1-1V61l1-1h2l1 1v12zm30-18l-1 1H43l-1-1v-2l1-1h28l1 1v2zm0-6l-1 1H9l-1-1v-2l1-1h62l1 1v2zM28 6h4V2H0v4h6l2 2v24l-2 2H0v4h32v-4h-4l-2-2V8l2-2zM16 33l-1 1h-2l-1-1V7l1-1h2l1 1v26zm6 0l-1 1h-2l-1-1V7l1-1h2l1 1v26zM52 34h-4v4h32v-4h-6l-2-2V8l2-2h6V2H48v4h4l2 2v24l-2 2zM64 7l1-1h2l1 1v26l-1 1h-2l-1-1V7zm-6 0l1-1h2l1 1v26l-1 1h-2l-1-1V7z"/><path class="st0" d="M26 14l14 10 14-10v-4L40 20 26 10z"/><path class="st0" d="M26 22l14 10 14-10v-4L40 28 26 18z"/></svg>