<svg xmlns="http://www.w3.org/2000/svg" viewBox="0 0 64 64"><path fill="#E9B921" d="M20 9l-4 4 4 4h25V9z"/><path fill="#71E2A6" d="M59 1l4 4v16l-4 4H47l4-4V5l-4-4z"/><path fill="none" stroke="#4C3D6D" stroke-width="2" stroke-linejoin="bevel" stroke-miterlimit="10" d="M13 25L1 13 13 1h46l4 4v16l-4 4z"/><path fill="none" stroke="#4C3D6D" stroke-width="2" stroke-miterlimit="10" d="M13 2l7 7-4 4 4 4-7 7M45 17H20M20 9h25M47 1l4 4v16l-4 4M40 1l5 5v14l-5 5"/><path fill="#fff" stroke="#4C3D6D" stroke-width="1.99998" stroke-linejoin="bevel" stroke-miterlimit="10" d="M11 13l-5 5-5-5 5-5z"/><path opacity=".15" fill="#4C3D6D" d="M12 1h47l3 3H15zM20 9h25v3H17zM20 17h25v3H17z"/><path fill="#46424E" d="M-1 12h2v2h-2z"/><path fill="none" stroke="#4C3D6D" stroke-width="2" stroke-miterlimit="10" d="M3 31v32h12l4-4h26l4 4h12V31H49l-4 4H19l-4-4z"/><path fill="none" stroke="#fff" stroke-width="2" stroke-miterlimit="10" d="M52 35h8M4 35h8M52 59h8M4 59h8"/><path fill="none" stroke="#4C3D6D" stroke-width="2" stroke-miterlimit="10" d="M61 43H12l-2 2v4l6 6h45zM12 43h48"/><path fill="#E9B921" stroke="#4C3D6D" stroke-width="2" stroke-miterlimit="10" d="M16 39l-4 4h49v-4z"/><path fill="#71E2A6" stroke="#71E2A6" stroke-width="2" stroke-miterlimit="10" d="M23 47l-1 1v2l1 1h2l1-1v-2l-1-1z"/><path opacity=".15" fill="#4C3D6D" d="M3 31v3h14l4 4h22l4-4h14v-3H49l-4 4H20l-4-4zM11 44h50v2H11z"/></svg>