<?xml version="1.0" encoding="utf-8"?>
<!-- Generator: Adobe Illustrator 19.1.0, SVG Export Plug-In . SVG Version: 6.00 Build 0)  -->
<svg version="1.1" xmlns="http://www.w3.org/2000/svg" xmlns:xlink="http://www.w3.org/1999/xlink" x="0px" y="0px"
	 viewBox="0 0 64 64" enable-background="new 0 0 64 64" xml:space="preserve">

	<line fill="none" stroke="#E9B921" stroke-width="2" stroke-miterlimit="10" x1="0" y1="32" x2="8" y2="32"/>
	<line fill="none" stroke="#E9B921" stroke-width="2" stroke-miterlimit="10" x1="32" y1="0" x2="32" y2="7"/>
	<line fill="none" stroke="#E9B921" stroke-width="2" stroke-miterlimit="10" x1="64" y1="32" x2="56" y2="32"/>
	<line fill="none" stroke="#E9B921" stroke-width="2" stroke-miterlimit="10" x1="49" y1="15" x2="56" y2="8"/>
	<line fill="none" stroke="#E9B921" stroke-width="2" stroke-miterlimit="10" x1="8" y1="8" x2="15" y2="15"/>
	<polygon fill="none" stroke="#E9B921" stroke-width="2" stroke-miterlimit="10" points="22,8 8,22 8,41 16,49 24,41 29,41 29,35
		29,31 25,31 25,35 39,35 39,31 35,31 35,35 35,41 40,41 48,49 56,41 56,22 42,8 	"/>
	<polyline fill="none" stroke="#4C3D6D" stroke-width="2" stroke-miterlimit="10" points="27,51 27,48 24,48 16,40 16,24 24,16
		40,16 48,24 48,40 40,48 37,48 37,56 	"/>
	<polygon fill="#71E2A6" stroke="#4C3D6D" stroke-width="2" stroke-miterlimit="10" points="37,56 37,62 27,57 27,51 	"/>
	<polygon fill="#4C3D6D" stroke="#4C3D6D" stroke-width="2" stroke-miterlimit="10" points="27,58 27,61 29,63 37,63 37,62 27,57
		"/>
	<polyline fill="none" stroke="#ffffff" stroke-width="2" stroke-miterlimit="10" points="24,27 28,23 32,27 36,23 40,27 	"/>
	<rect x="23" y="17" opacity="0.15" fill="#4C3D6D" width="18" height="2"/>
	<polygon opacity="0.1" fill="#4C3D6D" points="32,15 40,15 49,24 49,40 40,49 38,49 38,64 32,64 	"/>
</svg>
