<svg xmlns="http://www.w3.org/2000/svg" viewBox="0 0 64 64"><path fill="none" stroke="#E9B921" stroke-width="2" stroke-miterlimit="10" d="M0 32h8M32 0v7M64 32h-8M49 15l7-7M8 8l7 7M22 8L8 22v19l8 8 8-8h5V31h-4v4h14v-4h-4v10h5l8 8 8-8V22L42 8z"/><path fill="none" stroke="#4C3D6D" stroke-width="2" stroke-miterlimit="10" d="M27 51v-3h-3l-8-8V24l8-8h16l8 8v16l-8 8h-3v8"/><path fill="#71E2A6" stroke="#4C3D6D" stroke-width="2" stroke-miterlimit="10" d="M37 56v6l-10-5v-6z"/><path fill="#4C3D6D" stroke="#4C3D6D" stroke-width="2" stroke-miterlimit="10" d="M27 58v3l2 2h8v-1l-10-5z"/><path fill="none" stroke="#fff" stroke-width="2" stroke-miterlimit="10" d="M24 27l4-4 4 4 4-4 4 4"/><path opacity=".15" fill="#4C3D6D" d="M23 17h18v2H23z"/><path opacity=".1" fill="#4C3D6D" d="M32 15h8l9 9v16l-9 9h-2v15h-6z"/></svg>