<svg xmlns="http://www.w3.org/2000/svg" viewBox="0 0 64 64"><path fill="none" stroke="#E9B921" stroke-width="2" stroke-miterlimit="10" d="M3 57l11.5-11.5M61 57L50 46"/><path fill="none" stroke="#4C3D6D" stroke-width="2" stroke-miterlimit="10" d="M1 24L20 5h24l19 19v31l-4 4H5l-4-4z"/><path fill="#FFF" d="M32 50H19L7 38V11h50v27L45 50z"/><path fill="#E2718D" stroke="#E2718D" stroke-width="2" stroke-miterlimit="10" d="M51 11v16l-4-4-4 4V11z"/><path fill="none" stroke="#4C3D6D" stroke-width="2" stroke-miterlimit="10" d="M7 38V11h50v27"/><path fill="none" stroke="#4C3D6D" stroke-width="2" stroke-miterlimit="10" d="M1 32l18 18h26l18-18"/><path fill="#71E2A6" stroke="#4C3D6D" stroke-width="2" stroke-miterlimit="10" d="M15 17l-2 2v4l2 2h4l2-2v-4l-2-2z"/><path fill="none" stroke="#4C3D6D" stroke-width="2" stroke-miterlimit="10" d="M26 19h12M26 23h12M16 32h32M18 36h28M22 40h20M26 44h12"/><path opacity=".15" fill="#4C3D6D" d="M16 8h32v2H16zM18 47h28v2H18zM4 21h2v14H4zM58 21h2v14h-2z"/><path opacity=".1" fill="#4C3D6D" d="M32 4v56h27l5-5V24l-6-6v-8h-8l-6-6z"/></svg>