<?xml version="1.0" encoding="utf-8"?>
<!-- Generator: Adobe Illustrator 19.1.0, SVG Export Plug-In . SVG Version: 6.00 Build 0)  -->
<svg version="1.1" id="Layer_1" xmlns="http://www.w3.org/2000/svg" xmlns:xlink="http://www.w3.org/1999/xlink" x="0px" y="0px"
	 viewBox="0 0 64 64" enable-background="new 0 0 64 64" xml:space="preserve">
<g>
	<line fill="none" stroke="#4C3D6D" stroke-width="2" stroke-miterlimit="10" x1="3" y1="23" x2="0" y2="23"/>
	<line fill="none" stroke="#4C3D6D" stroke-width="2" stroke-miterlimit="10" x1="14" y1="23" x2="11" y2="23"/>
	<line fill="none" stroke="#4C3D6D" stroke-width="2" stroke-miterlimit="10" x1="7" y1="19" x2="7" y2="16"/>
	<line fill="none" stroke="#4C3D6D" stroke-width="2" stroke-miterlimit="10" x1="7" y1="30" x2="7" y2="27"/>
	
		<rect x="4.172" y="20.172" transform="matrix(-0.7071 0.7071 -0.7071 -0.7071 28.2132 34.3137)" fill="#FFFFFF" stroke="#4C3D6D" stroke-width="2" stroke-miterlimit="10" width="5.657" height="5.657"/>
</g>
<g>
	<line fill="none" stroke="#4C3D6D" stroke-width="2" stroke-miterlimit="10" x1="53" y1="50" x2="50" y2="50"/>
	<line fill="none" stroke="#4C3D6D" stroke-width="2" stroke-miterlimit="10" x1="64" y1="50" x2="61" y2="50"/>
	<line fill="none" stroke="#4C3D6D" stroke-width="2" stroke-miterlimit="10" x1="57" y1="46" x2="57" y2="43"/>
	<line fill="none" stroke="#4C3D6D" stroke-width="2" stroke-miterlimit="10" x1="57" y1="57" x2="57" y2="54"/>
	
		<rect x="54.172" y="47.172" transform="matrix(-0.7071 0.7071 -0.7071 -0.7071 132.6604 45.0503)" fill="#71E2A6" stroke="#4C3D6D" stroke-width="2" stroke-miterlimit="10" width="5.657" height="5.657"/>
</g>
<g>
	<polygon fill="#FFFFFF" points="50.256,27 45,21.744 45,14.256 50.256,9 57.744,9 63,14.256 63,21.744 57.744,27 	"/>
	<polygon fill="#BBE271" points="51,18 51,14 53,9 50,9 45,14.256 45,18 	"/>
	<polygon fill="#E9B921" points="57,18 57,14 55,9 58,9 63,14.256 63,18 	"/>
	<polygon fill="#E2718D" points="51,18 51,22 54,27 57,22 57,18 	"/>
	<polygon fill="none" stroke="#4C3D6D" stroke-width="2" stroke-miterlimit="10" points="50.256,27 45,21.744 45,14.256 50.256,9 
		57.744,9 63,14.256 63,21.744 57.744,27 	"/>
	<polyline fill="none" stroke="#4C3D6D" stroke-width="2" stroke-linejoin="bevel" stroke-miterlimit="10" points="53,10 51,14 
		51,22 53,26 	"/>
	<polyline fill="none" stroke="#4C3D6D" stroke-width="2" stroke-linejoin="bevel" stroke-miterlimit="10" points="55,26 57,22 
		57,14 55,10 	"/>
	
		<line fill="none" stroke="#4C3D6D" stroke-width="2" stroke-linejoin="bevel" stroke-miterlimit="10" x1="46" y1="18" x2="62" y2="18"/>
</g>
<g>
	<polygon fill="#E2718D" points="28,1 17,12 17,42 22,47 28,47 34,47 39,42 39,12 	"/>
	<polygon fill="#FFFFFF" points="21,8 28,1 35,8 32,11 24,11 	"/>
	<polygon fill="none" stroke="#4C3D6D" stroke-width="2" stroke-linejoin="bevel" stroke-miterlimit="10" points="28,1 17,12 17,42 
		22,47 28,47 34,47 39,42 39,12 	"/>
	<polygon fill="#71E2A6" stroke="#4C3D6D" stroke-width="2" stroke-linejoin="bevel" stroke-miterlimit="10" points="17,27 7,37 
		11,41 17,41 	"/>
	<polygon fill="#71E2A6" stroke="#4C3D6D" stroke-width="2" stroke-linejoin="bevel" stroke-miterlimit="10" points="39,27 49,37 
		45,41 39,41 	"/>
	<polygon fill="#E9B921" stroke="#4C3D6D" stroke-width="2" stroke-miterlimit="10" points="26,23 24,21 24,17.336 26,15 30,15 
		32,17 32,21 30,23 	"/>
	<polygon fill="#E9B921" stroke="#4C3D6D" stroke-width="2" stroke-miterlimit="10" points="27,33 25,31 25,29 27,27 29,27 31,29 
		31,31 29,33 	"/>
	<polyline fill="none" stroke="#4C3D6D" stroke-width="2" stroke-miterlimit="10" points="21,8 24,11 32,11 35,8 	"/>
	<line fill="none" stroke="#4C3D6D" stroke-width="2" stroke-miterlimit="10" x1="18" y1="37" x2="38" y2="37"/>
	<line fill="none" stroke="#4C3D6D" stroke-width="2" stroke-miterlimit="10" x1="30" y1="42" x2="30" y2="46"/>
	<line fill="none" stroke="#4C3D6D" stroke-width="2" stroke-miterlimit="10" x1="26" y1="42" x2="26" y2="46"/>
	<line fill="none" stroke="#4C3D6D" stroke-width="2" stroke-miterlimit="10" x1="21" y1="25" x2="21" y2="36"/>
	<line fill="none" stroke="#4C3D6D" stroke-width="2" stroke-miterlimit="10" x1="35" y1="25" x2="35" y2="36"/>
</g>
<polygon fill="#E9B921" stroke="#4C3D6D" stroke-width="2" stroke-linejoin="bevel" stroke-miterlimit="10" points="30,51 32,51 
	36,55 28,63 20,55 24,51 26,51 28,53 "/>
<rect x="18" y="38" opacity="0.15" fill="#4C3D6D" width="20" height="2"/>
<rect x="25" y="16" opacity="0.15" fill="#4C3D6D" width="6" height="2"/>
<rect x="26" y="28" opacity="0.15" fill="#4C3D6D" width="4" height="2"/>
<rect x="4" y="21" opacity="0.15" fill="#4C3D6D" width="6" height="2"/>
<rect x="54" y="48" opacity="0.15" fill="#4C3D6D" width="6" height="2"/>
<rect x="26" y="3" opacity="0.15" fill="#4C3D6D" width="4" height="2"/>
<rect x="14" y="30" opacity="0.15" fill="#4C3D6D" width="2" height="2"/>
<rect x="40" y="30" opacity="0.15" fill="#4C3D6D" width="2" height="2"/>
<polygon opacity="0.1" fill="#4C3D6D" points="28,1 28,47 34,47 39,42 39,41 45,41 49,37 39,27 39,12 "/>
<polygon opacity="0.1" fill="#4C3D6D" points="28,53 30,51 32,51 36,55 28,63 "/>
<rect x="27" y="62" fill="#4C3D6D" width="2" height="2"/>
<rect x="27" fill="#4C3D6D" width="2" height="2"/>
</svg>
