<?xml version="1.0" encoding="utf-8"?>
<!-- Generator: Adobe Illustrator 19.1.0, SVG Export Plug-In . SVG Version: 6.00 Build 0)  -->
<svg version="1.1" xmlns="http://www.w3.org/2000/svg" xmlns:xlink="http://www.w3.org/1999/xlink" x="0px" y="0px"
	 viewBox="0 0 64 64" enable-background="new 0 0 64 64" xml:space="preserve">
	<polyline fill="none" stroke="#4C3D6D" stroke-width="2" stroke-miterlimit="10" points="56,4 63,11 63,37 45,55 19,55 8,44 	"/>
	<line fill="none" stroke="#4C3D6D" stroke-width="2" stroke-miterlimit="10" x1="59" y1="1" x2="49" y2="11"/>
	<line fill="none" stroke="#4C3D6D" stroke-width="2" stroke-miterlimit="10" x1="15" y1="37" x2="4" y2="48"/>
	<polygon fill="#71E2A6" points="41,37 37,45 32,45 32,37 	"/>
	<rect x="27" y="56" opacity="0.15" fill="#4C3D6D" width="10" height="2"/>
	<polygon fill="#ffffff" points="53,14 53,24 43,24 43,14 41,11 45,7 	"/>
	<polygon fill="#E9B921" points="32,24 32,37 23,37 21,33 21,24 	"/>

		<polygon fill="none" stroke="#4C3D6D" stroke-width="2" stroke-linecap="round" stroke-linejoin="round" stroke-miterlimit="10" points="
		28,55 26,59 21,59 17,63 47,63 43,59 38,59 36,55 	"/>
	<rect x="21" y="4" opacity="0.15" fill="#4C3D6D" width="22" height="2"/>
	<rect x="22" y="12" opacity="0.15" fill="#4C3D6D" width="20" height="2"/>
	<rect x="24" y="38" opacity="0.15" fill="#4C3D6D" width="16" height="2"/>
	<rect x="12" y="25" opacity="0.15" fill="#4C3D6D" width="40" height="2"/>
	<polygon opacity="0.15" fill="#4C3D6D" points="53,20 45,12 43,15 42,11 44,7 53,16 	"/>
	<polygon opacity="0.15" fill="#4C3D6D" points="11,20 19,12 21,15 22,11 20,7 11,16 	"/>
	<polyline fill="none" stroke="#4C3D6D" stroke-width="2" stroke-miterlimit="10" points="27,3 21,15 21,33 27,45 	"/>
	<polyline fill="none" stroke="#4C3D6D" stroke-width="2" stroke-miterlimit="10" points="37,45 43,33 43,15 37,3 	"/>
	<line fill="none" stroke="#4C3D6D" stroke-width="2" stroke-miterlimit="10" x1="32" y1="4" x2="32" y2="44"/>
	<polyline fill="none" stroke="#4C3D6D" stroke-width="2" stroke-miterlimit="10" points="45,41 41,37 23,37 19,41 	"/>
	<polyline fill="none" stroke="#4C3D6D" stroke-width="2" stroke-miterlimit="10" points="19,7 23,11 41,11 45,7 	"/>
	<line fill="none" stroke="#4C3D6D" stroke-width="2" stroke-miterlimit="10" x1="52" y1="24" x2="12" y2="24"/>
	<polygon fill="none" stroke="#4C3D6D" stroke-width="2" stroke-miterlimit="10" points="23.265,45 11,32.735 11,15.265 23.265,3
		40.735,3 53,15.265 53,32.735 40.735,45 	"/>
	<polygon opacity="0.15" fill="#4C3D6D" points="32,3 32,45 41,45 53,33 53,15 41,3 	"/>
	<polygon opacity="0.15" fill="#4C3D6D" points="32,55 32,63 47,63 43,59 39,59 35,55 	"/>
</svg>
