<?xml version="1.0" encoding="utf-8"?>
<!-- Generator: Adobe Illustrator 19.1.0, SVG Export Plug-In . SVG Version: 6.00 Build 0)  -->
<svg version="1.1" id="Layer_22" xmlns="http://www.w3.org/2000/svg" xmlns:xlink="http://www.w3.org/1999/xlink" x="0px" y="0px"
	 viewBox="0 0 64 64" enable-background="new 0 0 64 64" xml:space="preserve">
<polygon fill="#E2718D" stroke="#4C3D6D" stroke-width="2" stroke-miterlimit="10" points="63,37 1,37 1,31 3,29 60,29 63,31 "/>
<polygon fill="#E2718D" stroke="#4C3D6D" stroke-width="2" stroke-miterlimit="10" points="63,57 61,59 3,59 1,57 1,51 63,51 "/>
<rect x="6" y="32" fill="#E9B921" width="52" height="2"/>
<rect x="6" y="54" fill="#71E2A6" width="52" height="2"/>
<rect x="5" y="37" fill="#E9B921" stroke="#4C3D6D" stroke-width="2" stroke-miterlimit="10" width="54" height="14"/>
<polygon fill="#E2718D" stroke="#4C3D6D" stroke-width="2" stroke-miterlimit="10" points="24.096,63 13,51.903 13,36.097 
	24.096,25 39.903,25 51,36.097 51,51.903 39.903,63 "/>
<polygon fill="#FFFFFF" stroke="#4C3D6D" stroke-width="2" stroke-miterlimit="10" points="27.424,55 21,48.575 21,39.425 
	27.424,33 36.576,33 43,39.425 43,48.575 36.576,55 "/>
<polygon fill="#4C3D6D" stroke="#4C3D6D" stroke-width="2" stroke-miterlimit="10" points="39.788,36.212 36.576,33 27.424,33 
	21,39.425 21,48.575 24.212,51.788 "/>
<rect x="48" y="23" fill="#71E2A6" stroke="#4C3D6D" stroke-width="2" stroke-miterlimit="10" width="10" height="6"/>
<polygon fill="#4C3D6D" stroke="#4C3D6D" stroke-width="2" stroke-miterlimit="10" points="30.336,48 28,45.664 28,42.336 
	30.336,40 33.664,40 36,42.336 36,45.664 33.664,48 "/>
<rect x="8" y="40" fill="#4C3D6D" width="2" height="8"/>
<rect x="54" y="40" fill="#4C3D6D" width="2" height="8"/>
<polygon fill="#FFFFFF" stroke="#4C3D6D" stroke-width="2" stroke-miterlimit="10" points="47,13 45,15 19,15 17,13 17,3 19,1 45,1 
	47,3 "/>
<polygon fill="#71E2A6" stroke="#4C3D6D" stroke-width="2" stroke-miterlimit="10" points="36,25 28,25 28,20 23,15 41,15 36,20 "/>
<polygon fill="#E9B921" stroke="#4C3D6D" stroke-width="2" stroke-miterlimit="10" points="43,10 42,11 22,11 21,10 21,6 22,5 42,5 
	43,6 "/>
</svg>
