<svg id="Layer_1" xmlns="http://www.w3.org/2000/svg" viewBox="0 0 128 128"><style>.st0{fill:none;stroke:#4c3d6d;stroke-width:4;stroke-linejoin:bevel;stroke-miterlimit:10}.st1{fill:#4c3d6d}.st2{fill:none;stroke:#4c3d6d;stroke-width:4;stroke-linejoin:round;stroke-miterlimit:10}.st3{fill:#e9b921}.st4{fill:#e2718d}.st5,.st6{opacity:.2;fill:#4c3d6d}.st6{opacity:.1}</style><path class="st0" d="M64 3h19l21 21v24l-4 12v8l3 9v13l-8 8h-1M64 3H45L24 24v24l4 12v8l-3 9v13l8 8h1"/><path class="st1" d="M48 72l4.6 11.8v.2l.6 14v.2l-.1.4-2.7 6.1.1-.7.7 13-.7-1.5 8.4 7.6-1.9-.8 7-.3v6l-7-.3-1.2-.1-.7-.7-7.6-8.4-.7-.7v-.8l.7-13v-.4l.1-.3 3.3-5.9-.1.6.6-14v.2z"/><path class="st1" d="M35 73l2.3 5.9v.1l.5 8v.4l-2.7 6.2.1-.5.7 13-.6-1.4 8.5 7.5-1.8-.8 7-.4v6l-7-.4h-.3c-.6 0-1.2-.3-1.5-.7l-7.5-8.5-.1-.2c-.3-.3-.4-.8-.4-1.2l.7-13v-.1c0-.1.1-.3.1-.4l3.3-5.8-.1.3.5-8v.1L35 73zM93 73l-1.7 6.1V79l.5 8-.1-.4 3.3 5.8c.1.1.1.3.1.4v.1l.7 13c0 .5-.1.9-.4 1.2l-.2.2-7.5 8.5c-.4.5-1 .7-1.5.7h-.3l-7 .4v-6l7 .4-1.8.8 8.5-7.5-.6 1.4.7-13 .1.5-2.7-6.2v-.1c0-.1-.1-.2 0-.3l.5-8v-.1L93 73z"/><path class="st1" d="M80 72l-3.4 12.2V84l.6 14-.1-.6 3.3 5.9c.1.2.1.4.2.5v.1l.6 13c0 .5-.2 1-.5 1.4l-.1.2-7.6 8.4c-.4.5-1 .7-1.6.8h-.3l-7 .3v-6l7 .3-1.9.8 8.4-7.6-.6 1.5.6-13 .2.7-2.7-6.1v-.1c-.1-.1-.1-.3-.1-.4l.6-14V84v-.1L80 72z"/><path class="st2" d="M60 41v-9l-4-4h-4L42 38v13l4 4h10l4-4z"/><path class="st3" d="M63 66v-4l-2-2h-2l-4 4v5l2 2h4l2-2zM65 66v-4l2-2h2l4 4v5l-2 2h-4l-2-2z"/><path class="st2" d="M68 41v-9l4-4h4l10 10v13l-4 4H72l-4-4z"/><path class="st4" d="M53 42h-4l-2 2v4l2 2h4l2-2v-4l-2-2zm0 4h-2v-2h2v2zM79 42h-4l-2 2v4l2 2h4l2-2v-4l-2-2zm0 4h-2v-2h2v2z"/><path class="st5" d="M44 43l5-5h7l2 2v-8l-3-3h-2l-9 9zM84 43l-5-5h-7l-2 2v-8l3-3h2l9 9z"/><path class="st6" d="M64 123h6l8-8v-7l-8 8H58l-8-8v7l8 8zM64 4H46L26 24v7L48 9h32l22 22v-7L82 4zM85 105h-6v7h6l8-8v-7zM42 105h6v7h-6l-8-8v-7z"/><path class="st6" d="M64 1v127h7l10-10v-1h5l10-10v-7.9l1-.1 8-8V76l-3-9v-6l4-12V23L84 1z"/></svg>