<?xml version="1.0" encoding="utf-8"?>
<!-- Generator: Adobe Illustrator 19.1.0, SVG Export Plug-In . SVG Version: 6.00 Build 0)  -->
<svg version="1.1" id="Layer_1" xmlns="http://www.w3.org/2000/svg" xmlns:xlink="http://www.w3.org/1999/xlink" x="0px" y="0px"
	 viewBox="0 0 128 128" style="enable-background:new 0 0 128 128;" xml:space="preserve">
<style type="text/css">
	.st0{fill:none;stroke:#4C3D6D;stroke-width:4;stroke-linejoin:bevel;stroke-miterlimit:10;}
	.st1{fill:#4C3D6D;}
	.st2{fill:none;stroke:#4C3D6D;stroke-width:4;stroke-linejoin:round;stroke-miterlimit:10;}
	.st3{fill:#E9B921;}
	.st4{fill:#E2718D;}
	.st5{opacity:0.2;fill:#4C3D6D;}
	.st6{opacity:0.1;fill:#4C3D6D;}
</style>
<polyline class="st0" points="64,3 83,3 104,24 104,42 104,48 100,60 100,68 103,77 103,90 95,98 94,98 "/>
<polyline class="st0" points="64,3 45,3 24,24 24,42 24,48 28,60 28,68 25,77 25,90 33,98 34,98 "/>
<g>
	<polygon class="st1" points="48,72 52.6,83.8 52.6,83.9 52.6,84 53.2,98 53.2,98.2 53.1,98.6 50.4,104.7 50.5,104 51.2,117 
		50.5,115.5 58.9,123.1 57,122.3 64,122 64,128 57,127.7 55.8,127.6 55.1,126.9 47.5,118.5 46.8,117.8 46.8,117 47.5,104 
		47.5,103.6 47.6,103.3 50.9,97.4 50.8,98 51.4,84 51.4,84.2 	"/>
</g>
<g>
	<path class="st1" d="M35,73l2.3,5.9c0,0,0,0,0,0.1l0,0l0.5,8c0,0.1,0,0.2,0,0.3l0,0.1l-2.7,6.2l0.1-0.5l0.7,13l-0.6-1.4l8.5,7.5
		l-1.8-0.8l7-0.4v6l-7-0.4l-0.3,0c-0.6,0-1.2-0.3-1.5-0.7l-7.5-8.5l-0.1-0.2c-0.3-0.3-0.4-0.8-0.4-1.2l0.7-13l0-0.1
		c0-0.1,0.1-0.3,0.1-0.4l3.3-5.8L36.2,87l0.5-8l0,0.1L35,73z"/>
</g>
<g>
	<path class="st1" d="M93,73l-1.7,6.1l0-0.1l0.5,8l-0.1-0.4l3.3,5.8c0.1,0.1,0.1,0.3,0.1,0.4l0,0.1l0.7,13c0,0.5-0.1,0.9-0.4,1.2
		l-0.2,0.2l-7.5,8.5c-0.4,0.5-1,0.7-1.5,0.7l-0.3,0l-7,0.4v-6l7,0.4l-1.8,0.8l8.5-7.5L92,106l0.7-13l0.1,0.5l-2.7-6.2l0-0.1
		c0-0.1-0.1-0.2,0-0.3l0.5-8l0,0c0,0,0-0.1,0-0.1L93,73z"/>
</g>
<g>
	<path class="st1" d="M80,72l-3.4,12.2l0-0.2l0.6,14l-0.1-0.6l3.3,5.9c0.1,0.2,0.1,0.4,0.2,0.5l0,0.1l0.6,13c0,0.5-0.2,1-0.5,1.4
		l-0.1,0.2l-7.6,8.4c-0.4,0.5-1,0.7-1.6,0.8l-0.3,0l-7,0.3v-6l7,0.3l-1.9,0.8l8.4-7.6l-0.6,1.5l0.6-13l0.2,0.7l-2.7-6.1l0-0.1
		c-0.1-0.1-0.1-0.3-0.1-0.4l0.6-14l0-0.1c0,0,0-0.1,0-0.1L80,72z"/>
</g>
<polygon class="st2" points="60,41 60,32 56,28 52,28 42,38 42,51 46,55 56,55 60,51 "/>
<polygon class="st3" points="63,66 63,62 61,60 59,60 55,64 55,69 57,71 61,71 63,69 "/>
<polygon class="st3" points="65,66 65,62 67,60 69,60 73,64 73,69 71,71 67,71 65,69 "/>
<polygon class="st2" points="68,41 68,32 72,28 76,28 86,38 86,51 82,55 72,55 68,51 "/>
<path class="st4" d="M53,42h-4l-2,2v1v3l2,2h4l2-2v-4L53,42z M53,46h-2v-2h2V46z"/>
<path class="st4" d="M79,42h-4l-2,2v1v3l2,2h4l2-2v-4L79,42z M79,46h-2v-2h2V46z"/>
<polygon class="st5" points="44,43 49,38 56,38 58,40 58,32 55,29 53,29 44,38 "/>
<polygon class="st5" points="84,43 79,38 72,38 70,40 70,32 73,29 75,29 84,38 "/>
<polygon class="st6" points="64,123 70,123 78,115 78,108 70,116 58,116 50,108 50,115 58,123 "/>
<polygon class="st6" points="64,4 46,4 26,24 26,31 48,9 80,9 102,31 102,24 82,4 "/>
<polygon class="st6" points="85,105 79,105 79,112 85,112 93,104 93,97 "/>
<polygon class="st6" points="42,105 48,105 48,112 42,112 34,104 34,97 "/>
<polygon class="st6" points="64,1 64,128 71,128 81,118 81,117 86,117 96,107 96,99.1 97,99 105,91 105,76 102,67 102,61 106,49 
	106,23 84,1 "/>
</svg>
