<?xml version="1.0" encoding="UTF-8"?>
<svg width="80px" height="76px" viewBox="0 0 80 76" version="1.1" xmlns="http://www.w3.org/2000/svg" xmlns:xlink="http://www.w3.org/1999/xlink">
    <!-- Generator: Sketch 47.1 (45422) - http://www.bohemiancoding.com/sketch -->
    <title>Group</title>
    <desc>Created with Sketch.</desc>
    <defs>
        <linearGradient x1="98.7723214%" y1="50%" x2="0%" y2="50%" id="linearGradient-1">
            <stop stop-color="#97EAD2" offset="0%"></stop>
            <stop stop-color="#E9B921" offset="54.0955835%"></stop>
            <stop stop-color="#E2718D" offset="100%"></stop>
        </linearGradient>
        <linearGradient x1="-1.11022302e-14%" y1="50%" x2="98.7723214%" y2="50%" id="linearGradient-2">
            <stop stop-color="#97EAD2" offset="0%"></stop>
            <stop stop-color="#E9B921" offset="54.0955835%"></stop>
            <stop stop-color="#E2718D" offset="100%"></stop>
        </linearGradient>
    </defs>
    <g id="Page-1" stroke="none" stroke-width="1" fill="none" fill-rule="evenodd">
        <g id="Desktop-HD" transform="translate(-680.000000, -474.000000)">
            <g id="Group" transform="translate(680.000000, 474.000000)">
                <path d="M0,0 L32,0 L32,4 L28,4 L26,6 L26,8 L40,18 L54,8 L54,6 L52,4 L48,4 L48,0 L80,0 L80,4 L74,4 L72,6 L72,30 L74,32 L80,32 L80,36 L48,36 L48,32 L52,32 L54,30 L54,20 L40,30 L26,20 L26,30 L28,32 L32,32 L32,36 L0,36 L0,32 L6,32 L8,30 L8,6 L6,4 L0,4 L0,0 Z M13,4 L12,5 L12,31 L13,32 L15,32 L16,31 L16,5 L15,4 L13,4 Z M18,5 L18,31 L19,32 L21,32 L22,31 L22,5 L21,4 L19,4 L18,5 Z M26,12 L26,16 L40,26 L54,16 L54,12 L40,22 L26,12 Z M58,5 L58,31 L59,32 L61,32 L62,31 L62,5 L61,4 L59,4 L58,5 Z M64,5 L64,31 L65,32 L67,32 L68,31 L68,5 L67,4 L65,4 L64,5 Z" id="Combined-Shape" fill="url(#linearGradient-1)"></path>
                <path d="M8,60 L8,64 L4,64 L4,42 L6,40 L74,40 L76,42 L76,64 L72,64 L72,60 L70,58 L48,58 L46,60 L46,70 L48,72 L52,72 L54,70 L54,68 L58,68 L58,72 L54,76 L26,76 L22,72 L22,68 L26,68 L26,70 L28,72 L32,72 L34,70 L34,60 L32,58 L10,58 L8,60 Z M9,50 L8,51 L8,53 L9,54 L37,54 L38,53 L38,51 L37,50 L9,50 Z M9,44 L8,45 L8,47 L9,48 L71,48 L72,47 L72,45 L71,44 L9,44 Z M43,50 L42,51 L42,53 L43,54 L71,54 L72,53 L72,51 L71,50 L43,50 Z M41,58 L39,58 L38,59 L38,71 L39,72 L41,72 L42,71 L42,59 L41,58 Z" id="Combined-Shape" fill="url(#linearGradient-2)"></path>
            </g>
        </g>
    </g>
</svg>