<svg xmlns="http://www.w3.org/2000/svg" xmlns:xlink="http://www.w3.org/1999/xlink" preserveAspectRatio="xMidYMid" width="40" height="40" viewBox="0 0 40 40">
  <defs>
    <style>
      .cls-1 {
        fill: #ebebeb;
      }

      .cls-1, .cls-2, .cls-3 {
        fill-rule: evenodd;
      }

      .cls-2 {
        fill: #d4d4d4;
      }

      .cls-3 {
        fill: #fff;
      }
    </style>
  </defs>
  <g>
    <path d="M8.000,-0.000 L24.000,-0.000 L24.000,9.000 L16.000,18.000 L8.000,9.000 L4.000,4.000 L8.000,-0.000 Z" class="cls-1"/>
    <path d="M-0.000,8.000 L-0.000,24.000 L9.000,24.000 L17.000,17.000 L4.000,4.000 L-0.000,8.000 Z" class="cls-2"/>
    <path d="M8.000,24.000 L16.000,16.000 L9.607,9.607 C9.607,9.607 9.607,9.607 9.607,9.607 L16.000,16.000 L24.000,8.000 L24.000,0.000 C32.502,0.000 40.000,0.000 40.000,0.000 L40.000,24.000 L24.000,40.000 L0.000,40.000 C0.000,40.000 0.000,32.503 0.000,24.000 L8.000,24.000 Z" class="cls-3"/>
  </g>
</svg>
