<svg xmlns="http://www.w3.org/2000/svg" xmlns:xlink="http://www.w3.org/1999/xlink" preserveAspectRatio="xMidYMid" width="40" height="40" viewBox="0 0 40 40">
  <defs>
    <style>
      .cls-1 {
        fill: #ebebeb;
      }

      .cls-1, .cls-2, .cls-3 {
        fill-rule: evenodd;
      }

      .cls-2 {
        fill: #d4d4d4;
      }

      .cls-3 {
        fill: #fff;
      }
    </style>
  </defs>
  <g>
    <path d="M32.000,40.000 L16.000,40.000 L16.000,31.000 L24.000,22.000 L32.000,31.000 L36.000,36.000 L32.000,40.000 Z" class="cls-1"/>
    <path d="M40.000,32.000 L40.000,16.000 L31.000,16.000 L23.000,23.000 L36.000,36.000 L40.000,32.000 Z" class="cls-2"/>
    <path d="M32.000,16.000 L24.000,24.000 L30.393,30.393 C30.393,30.393 30.393,30.393 30.393,30.393 L24.000,24.000 L16.000,32.000 L16.000,40.000 C7.498,40.000 0.000,40.000 0.000,40.000 L0.000,16.000 L16.000,0.000 L40.000,0.000 C40.000,0.000 40.000,7.497 40.000,16.000 L32.000,16.000 Z" class="cls-3"/>
  </g>
</svg>
