<?xml version="1.0" encoding="utf-8"?>
<!-- Generator: Adobe Illustrator 19.1.0, SVG Export Plug-In . SVG Version: 6.00 Build 0)  -->
<svg version="1.1" xmlns="http://www.w3.org/2000/svg" xmlns:xlink="http://www.w3.org/1999/xlink" x="0px" y="0px"
	 viewBox="0 0 64 64" enable-background="new 0 0 64 64" xml:space="preserve">
	<polygon fill="#E9B921" points="20,9 16,13 20,17 45,17 45,9 	"/>
	<polygon fill="#71E2A6" points="59,1 63,5 63,21 59,25 47,25 51,21 51,5 47,1 	"/>
	<polygon fill="none" stroke="#4C3D6D" stroke-width="2" stroke-linejoin="bevel" stroke-miterlimit="10" points="13,25 1,13 13,1
		59,1 63,5 63,21 59,25 	"/>
	<polyline fill="none" stroke="#4C3D6D" stroke-width="2" stroke-miterlimit="10" points="13,2 20,9 16,13 20,17 13,24 	"/>
	<line fill="none" stroke="#4C3D6D" stroke-width="2" stroke-miterlimit="10" x1="45" y1="17" x2="20" y2="17"/>
	<line fill="none" stroke="#4C3D6D" stroke-width="2" stroke-miterlimit="10" x1="20" y1="9" x2="45" y2="9"/>
	<polyline fill="none" stroke="#4C3D6D" stroke-width="2" stroke-miterlimit="10" points="47,1 51,5 51,21 47,25 	"/>
	<polyline fill="none" stroke="#4C3D6D" stroke-width="2" stroke-miterlimit="10" points="40,1 45,6 45,20 40,25 	"/>

		<rect x="2.464" y="9.464" transform="matrix(-0.7071 0.7071 -0.7071 -0.7071 19.435 17.9497)" fill="#ffffff" stroke="#4C3D6D" stroke-width="2" stroke-linejoin="bevel" stroke-miterlimit="10" width="7.071" height="7.071"/>
	<polygon opacity="0.15" fill="#4C3D6D" points="12,1 59,1 62,4 15,4 	"/>
	<polygon opacity="0.15" fill="#4C3D6D" points="20,9 45,9 45,12 17,12 	"/>
	<polygon opacity="0.15" fill="#4C3D6D" points="20,17 45,17 45,20 17,20 	"/>
	<rect x="-1" y="12" fill="#46424E" width="2" height="2"/>
	<polygon fill="none" stroke="#4C3D6D" stroke-width="2" stroke-miterlimit="10" points="3,31 3,63 15,63 19,59 45,59 49,63 61,63
		61,31 49,31 45,35 19,35 15,31 	"/>
	<line fill="none" stroke="#ffffff" stroke-width="2" stroke-miterlimit="10" x1="52" y1="35" x2="60" y2="35"/>
	<line fill="none" stroke="#ffffff" stroke-width="2" stroke-miterlimit="10" x1="4" y1="35" x2="12" y2="35"/>
	<line fill="none" stroke="#ffffff" stroke-width="2" stroke-miterlimit="10" x1="52" y1="59" x2="60" y2="59"/>
	<line fill="none" stroke="#ffffff" stroke-width="2" stroke-miterlimit="10" x1="4" y1="59" x2="12" y2="59"/>
	<polygon fill="none" stroke="#4C3D6D" stroke-width="2" stroke-miterlimit="10" points="61,43 12,43 10,45 10,49 16,55 61,55 	"/>
	<line fill="none" stroke="#4C3D6D" stroke-width="2" stroke-miterlimit="10" x1="12" y1="43" x2="60" y2="43"/>
	<polygon fill="#E9B921" stroke="#4C3D6D" stroke-width="2" stroke-miterlimit="10" points="16,39 12,43 61,43 61,39 	"/>
	<polygon fill="#71E2A6" stroke="#71E2A6" stroke-width="2" stroke-miterlimit="10" points="23,47 22,48 22,50 23,51 25,51 26,50
		26,48 25,47 	"/>
	<polygon opacity="0.15" fill="#4C3D6D" points="3,31 3,34 17,34 21,38 43,38 47,34 61,34 61,31 49,31 45,35 20,35 16,31 	"/>
	<rect x="11" y="44" opacity="0.15" fill="#4C3D6D" width="50" height="2"/>

</svg>
