<svg xmlns="http://www.w3.org/2000/svg" viewBox="0 0 64 64"><path fill="#E9B921" d="M26 35l5-5 5 5v5l-5 5-5-5z"/><path fill="none" stroke="#4C3D6D" stroke-width="2" stroke-linejoin="round" stroke-miterlimit="10" d="M16 12l4.5-4h8l3 3 3-3h8l3.5 4v36L35.5 59h-8L16 48z"/><path fill="#FFF" stroke="#4C3D6D" stroke-width="2" stroke-linejoin="round" stroke-miterlimit="10" d="M31 23l-5.5-6h-7L12 23v7l6.5 6h7l5.5-6z"/><path fill="#4C3D6D" d="M27 25h-4v-4h-3.5L16 24v5l3.5 3h5l2.5-3z"/><path fill="#FFF" stroke="#4C3D6D" stroke-width="2" stroke-linejoin="round" stroke-miterlimit="10" d="M50 23l-5.5-6h-7L31 23v7l6.5 6h7l5.5-6z"/><path fill="#4C3D6D" d="M46 25h-4v-4h-3.5L35 24v5l3.5 3h5l2.5-3z"/><path fill="none" stroke="#4C3D6D" stroke-width="2" stroke-linejoin="round" stroke-miterlimit="10" d="M26 36v4l5 5 5-5v-4"/><path fill="none" stroke="#71E2A6" stroke-width="2" stroke-linejoin="round" stroke-miterlimit="10" d="M25.5 52l3-3 3 3 3-3 3 3"/><path fill="none" stroke="#E9B921" stroke-width="2" stroke-linejoin="round" stroke-miterlimit="10" d="M21 12h5.5l5 5 5-5H41"/><path fill="none" stroke="#4C3D6D" stroke-width="2" stroke-linejoin="round" stroke-miterlimit="10" d="M31 45v-6M43 8l7-7v22"/><path fill="none" stroke="#FFF" stroke-width="2" stroke-miterlimit="10" d="M12 36v14l4 4M50 36v14l-4 4"/><path fill="none" stroke="#4C3D6D" stroke-width="2" stroke-linejoin="round" stroke-miterlimit="10" d="M12 23V1l7 7M12.25 30L8 34v18l5.25 5 15-15M50.25 30L54 34v18l-4.75 5-15-15"/><path fill="none" stroke="#4C3D6D" stroke-width="2" stroke-linecap="round" stroke-linejoin="bevel" stroke-miterlimit="10" d="M39.5 55l8 8h-32l8-8"/><path opacity=".2" fill="#4C3D6D" d="M31 23l-5.5-6h-7L12 23v6l6.5-6h7l5.5 6zM50 23l-5.5-6h-7L31 23v6l6.5-6h7l5.5 6z"/><path opacity=".1" fill="#4C3D6D" d="M31 11v52h16.5l-8-8 4-4 5.75 6L54 52V34l-4-4V1l-7.75 8-.75-1h-7z"/></svg>