<?xml version="1.0" encoding="utf-8"?>
<!-- Generator: Adobe Illustrator 19.1.0, SVG Export Plug-In . SVG Version: 6.00 Build 0)  -->
<svg version="1.1" id="Howell" xmlns="http://www.w3.org/2000/svg" xmlns:xlink="http://www.w3.org/1999/xlink" x="0px" y="0px"
	 viewBox="0 0 64 64" enable-background="new 0 0 64 64" xml:space="preserve">
<polygon fill="#E9B921" points="26,35 31,30 36,35 36,40 31,45 26,40 "/>
<polygon fill="none" stroke="#4C3D6D" stroke-width="2" stroke-linejoin="round" stroke-miterlimit="10" points="16,12 20.5,8 
	28.5,8 31.5,11 34.5,8 42.5,8 46,12 46,48 35.5,59 27.5,59 16,48 "/>
<polygon fill="#FFFFFF" stroke="#4C3D6D" stroke-width="2" stroke-linejoin="round" stroke-miterlimit="10" points="31,23 25.5,17 
	18.5,17 12,23 12,30 18.5,36 25.5,36 31,30 "/>
<polygon fill="#4C3D6D" points="27,25 23,25 23,21 19.5,21 16,24 16,29 19.5,32 24.5,32 27,29 "/>
<polygon fill="#FFFFFF" stroke="#4C3D6D" stroke-width="2" stroke-linejoin="round" stroke-miterlimit="10" points="50,23 44.5,17 
	37.5,17 31,23 31,30 37.5,36 44.5,36 50,30 "/>
<polygon fill="#4C3D6D" points="46,25 42,25 42,21 38.5,21 35,24 35,29 38.5,32 43.5,32 46,29 "/>
<polyline fill="none" stroke="#4C3D6D" stroke-width="2" stroke-linejoin="round" stroke-miterlimit="10" points="26,36 26,40 
	31,45 36,40 36,36 "/>
<polyline fill="none" stroke="#71E2A6" stroke-width="2" stroke-linejoin="round" stroke-miterlimit="10" points="25.5,52 28.5,49 
	31.5,52 34.5,49 37.5,52 "/>
<polyline fill="none" stroke="#E9B921" stroke-width="2" stroke-linejoin="round" stroke-miterlimit="10" points="21,12 26.5,12 
	31.5,17 36.5,12 41,12 "/>
<line fill="none" stroke="#4C3D6D" stroke-width="2" stroke-linejoin="round" stroke-miterlimit="10" x1="31" y1="45" x2="31" y2="39"/>
<polyline fill="none" stroke="#4C3D6D" stroke-width="2" stroke-linejoin="round" stroke-miterlimit="10" points="43,8 50,1 50,23 
	"/>
<polyline fill="none" stroke="#FFFFFF" stroke-width="2" stroke-miterlimit="10" points="12,36 12,50 16,54 "/>
<polyline fill="none" stroke="#FFFFFF" stroke-width="2" stroke-miterlimit="10" points="50,36 50,50 46,54 "/>
<polyline fill="none" stroke="#4C3D6D" stroke-width="2" stroke-linejoin="round" stroke-miterlimit="10" points="12,23 12,1 19,8 
	"/>
<polyline fill="none" stroke="#4C3D6D" stroke-width="2" stroke-linejoin="round" stroke-miterlimit="10" points="12.25,30 8,34 
	8,52 13.25,57 28.25,42 "/>
<polyline fill="none" stroke="#4C3D6D" stroke-width="2" stroke-linejoin="round" stroke-miterlimit="10" points="50.25,30 54,34 
	54,52 49.25,57 34.25,42 "/>
<polyline fill="none" stroke="#4C3D6D" stroke-width="2" stroke-linecap="round" stroke-linejoin="bevel" stroke-miterlimit="10" points="
	39.5,55 47.5,63 15.5,63 23.5,55 "/>
<polygon opacity="0.2" fill="#4C3D6D" points="31,23 25.5,17 18.5,17 12,23 12,29 18.5,23 25.5,23 31,29 "/>
<polygon opacity="0.2" fill="#4C3D6D" points="50,23 44.5,17 37.5,17 31,23 31,29 37.5,23 44.5,23 50,29 "/>
<polygon opacity="0.1" fill="#4C3D6D" points="31,11 31,63 47.5,63 39.5,55 43.5,51 49.25,57 54,52 54,34 50,30 50,1 42.25,9 
	41.5,8 34.5,8 "/>
</svg>
